<?xml version="1.0" encoding="UTF-8" standalone="no"?>
<!DOCTYPE svg PUBLIC "-//W3C//DTD SVG 1.1//EN"
 "http://www.w3.org/Graphics/SVG/1.1/DTD/svg11.dtd">
<!-- Generated by graphviz version 2.47.1 (20210515.0534)
 -->
<!-- Title: application_state_diagram Pages: 1 -->
<svg width="640pt" height="356pt"
 viewBox="0.00 0.00 640.00 356.00" xmlns="http://www.w3.org/2000/svg" xmlns:xlink="http://www.w3.org/1999/xlink">
<g id="graph0" class="graph" transform="scale(1 1) rotate(0) translate(4 352)">
<title>application_state_diagram</title>
<g id="a_graph0"><a xlink:href="index.html" target="_parent">
<polygon fill="white" stroke="transparent" points="-4,4 -4,-352 636,-352 636,4 -4,4"/>
</a>
</g>
<!-- Explore -->
<g id="node1" class="node">
<title>Explore</title>
<g id="a_node1"><a xlink:href="docs/semantic.Explore.html" xlink:title="&lt;TABLE&gt;" target="_parent">
<polygon fill="lightgray" stroke="black" stroke-width="2" points="88,-256 0,-256 0,-184 88,-184 88,-256"/>
<text text-anchor="start" x="17.5" y="-238.8" font-family="Times,serif" font-size="14.00">Explore</text>
<text text-anchor="start" x="13.5" y="-223.8" font-family="Times,serif" font-size="14.00">(ForYou)</text>
<text text-anchor="start" x="10" y="-208.8" font-family="Times,serif" font-size="14.00">(Covid19)</text>
<text text-anchor="start" x="6" y="-193.8" font-family="Times,serif" font-size="14.00">(Trending)</text>
</a>
</g>
</g>
<!-- Home -->
<g id="node2" class="node">
<title>Home</title>
<g id="a_node2"><a xlink:href="docs/semantic.Home.html" xlink:title="&lt;TABLE&gt;" target="_parent">
<polygon fill="lightgray" stroke="black" stroke-width="2" points="299.5,-348 204.5,-348 204.5,-306 299.5,-306 299.5,-348"/>
<text text-anchor="start" x="237" y="-330.8" font-family="Times,serif" font-size="14.00">Home</text>
<text text-anchor="start" x="211" y="-315.8" font-family="Times,serif" font-size="14.00">(tweetList)</text>
</a>
</g>
</g>
<!-- Home&#45;&gt;Explore -->
<g id="edge1" class="edge">
<title>Home&#45;&gt;Explore</title>
<g id="a_edge1"><a xlink:href="docs/safe.goExplore.html" xlink:title="goExplore (safe)" target="_parent">
<path fill="none" stroke="black" d="M204.44,-322.63C153.82,-318.05 78.27,-308.02 58,-288 51.92,-282 48.15,-274.09 45.88,-265.81"/>
<polygon fill="black" stroke="black" points="49.3,-265.09 43.84,-256.02 42.45,-266.52 49.3,-265.09"/>
</a>
</g>
<g id="a_edge1&#45;label"><a xlink:href="docs/safe.goExplore.html" xlink:title="goExplore (safe)" target="_parent">
<text text-anchor="start" x="58" y="-277.6" font-family="Times,serif" font-size="13.00">goExplore (safe)</text>
</a>
</g>
</g>
<!-- Home&#45;&gt;Home -->
<g id="edge2" class="edge">
<title>Home&#45;&gt;Home</title>
<path fill="none" stroke="black" d="M299.69,-335.37C310.01,-334.55 317.5,-331.76 317.5,-327 317.5,-324.02 314.58,-321.82 309.86,-320.38"/>
<polygon fill="black" stroke="black" points="310.14,-316.88 299.69,-318.63 308.95,-323.78 310.14,-316.88"/>
<g id="a_edge2_0"><a xlink:href="docs/unsafe.doTweet.html" xlink:title="&lt;TABLE&gt;">
<text text-anchor="start" x="321.5" y="-333.6" font-family="Times,serif" font-size="13.00">doTweet (unsafe)</text>
</a>
</g>
<g id="a_edge2_1"><a xlink:href="docs/safe.goMoreTweet.html" xlink:title="&lt;TABLE&gt;">
<text text-anchor="start" x="321.5" y="-313.6" font-family="Times,serif" font-size="13.00">goMoreTweet (safe)</text>
</a>
</g>
</g>
<!-- Lists -->
<g id="node6" class="node">
<title>Lists</title>
<g id="a_node6"><a xlink:href="docs/semantic.Lists.html" xlink:title="&lt;TABLE&gt;" target="_parent">
<polygon fill="lightgray" stroke="black" stroke-width="2" points="229.5,-241 126.5,-241 126.5,-199 229.5,-199 229.5,-241"/>
<text text-anchor="start" x="159.5" y="-223.8" font-family="Times,serif" font-size="14.00">Lists</text>
<text text-anchor="start" x="133" y="-208.8" font-family="Times,serif" font-size="14.00">(listOfList)</text>
</a>
</g>
</g>
<!-- Home&#45;&gt;Lists -->
<g id="edge3" class="edge">
<title>Home&#45;&gt;Lists</title>
<g id="a_edge3"><a xlink:href="docs/safe.goLists.html" xlink:title="goLists (safe)" target="_parent">
<path fill="none" stroke="black" d="M207.22,-305.81C200.21,-300.89 193.73,-294.98 189,-288 181.79,-277.36 178.73,-263.62 177.59,-251.36"/>
<polygon fill="black" stroke="black" points="181.06,-250.88 177.02,-241.08 174.08,-251.26 181.06,-250.88"/>
</a>
</g>
<g id="a_edge3&#45;label"><a xlink:href="docs/safe.goLists.html" xlink:title="goLists (safe)" target="_parent">
<text text-anchor="start" x="189" y="-277.6" font-family="Times,serif" font-size="13.00">goLists (safe)</text>
</a>
</g>
</g>
<!-- Notifications -->
<g id="node8" class="node">
<title>Notifications</title>
<g id="a_node8"><a xlink:href="docs/semantic.Notifications.html" xlink:title="&lt;TABLE&gt;" target="_parent">
<polygon fill="lightgray" stroke="black" stroke-width="2" points="401,-241 253,-241 253,-199 401,-199 401,-241"/>
<text text-anchor="start" x="278" y="-223.8" font-family="Times,serif" font-size="14.00">Notifications</text>
<text text-anchor="start" x="259" y="-208.8" font-family="Times,serif" font-size="14.00">(notificationList)</text>
</a>
</g>
</g>
<!-- Home&#45;&gt;Notifications -->
<g id="edge5" class="edge">
<title>Home&#45;&gt;Notifications</title>
<g id="a_edge5"><a xlink:href="docs/safe.goNotifications.html" xlink:title="goNotifications (safe)" target="_parent">
<path fill="none" stroke="black" d="M278.22,-305.84C284.2,-300.46 290.2,-294.36 295,-288 303.51,-276.71 310.61,-262.8 315.93,-250.58"/>
<polygon fill="black" stroke="black" points="319.21,-251.81 319.82,-241.23 312.75,-249.12 319.21,-251.81"/>
</a>
</g>
<g id="a_edge5&#45;label"><a xlink:href="docs/safe.goNotifications.html" xlink:title="goNotifications (safe)" target="_parent">
<text text-anchor="start" x="304" y="-277.6" font-family="Times,serif" font-size="13.00">goNotifications (safe)</text>
</a>
</g>
</g>
<!-- Messages -->
<g id="node9" class="node">
<title>Messages</title>
<g id="a_node9"><a xlink:href="docs/semantic.Messages.html" xlink:title="Messages" target="_parent">
<polygon fill="lightgray" stroke="black" stroke-width="2" points="544.5,-238 467.5,-238 467.5,-202 544.5,-202 544.5,-238"/>
<text text-anchor="middle" x="506" y="-216.3" font-family="Times,serif" font-size="14.00">Messages</text>
</a>
</g>
</g>
<!-- Home&#45;&gt;Messages -->
<g id="edge4" class="edge">
<title>Home&#45;&gt;Messages</title>
<g id="a_edge4"><a xlink:href="docs/safe.goMessages.html" xlink:title="goMessages (safe)" target="_parent">
<path fill="none" stroke="black" d="M299.85,-322.92C356.71,-318.4 447.25,-308.22 474,-288 486.91,-278.24 494.85,-261.94 499.59,-247.86"/>
<polygon fill="black" stroke="black" points="502.99,-248.72 502.51,-238.13 496.29,-246.71 502.99,-248.72"/>
</a>
</g>
<g id="a_edge4&#45;label"><a xlink:href="docs/safe.goMessages.html" xlink:title="goMessages (safe)" target="_parent">
<text text-anchor="start" x="487" y="-277.6" font-family="Times,serif" font-size="13.00">goMessages (safe)</text>
</a>
</g>
</g>
<!-- ListFollowers -->
<g id="node3" class="node">
<title>ListFollowers</title>
<g id="a_node3"><a xlink:href="docs/semantic.ListFollowers.html" xlink:title="&lt;TABLE&gt;" target="_parent">
<polygon fill="lightgray" stroke="black" stroke-width="2" points="131,-42 21,-42 21,0 131,0 131,-42"/>
<text text-anchor="start" x="27" y="-24.8" font-family="Times,serif" font-size="14.00">ListFollowers</text>
<text text-anchor="start" x="38" y="-9.8" font-family="Times,serif" font-size="14.00">(userList)</text>
</a>
</g>
</g>
<!-- ListItem -->
<g id="node4" class="node">
<title>ListItem</title>
<g id="a_node4"><a xlink:href="docs/semantic.ListItem.html" xlink:title="&lt;TABLE&gt;" target="_parent">
<polygon fill="lightgray" stroke="black" stroke-width="2" points="206.5,-134 133.5,-134 133.5,-92 206.5,-92 206.5,-134"/>
<text text-anchor="start" x="140" y="-116.8" font-family="Times,serif" font-size="14.00">ListItem</text>
<text text-anchor="start" x="147.5" y="-101.8" font-family="Times,serif" font-size="14.00">(list)</text>
</a>
</g>
</g>
<!-- ListItem&#45;&gt;ListFollowers -->
<g id="edge6" class="edge">
<title>ListItem&#45;&gt;ListFollowers</title>
<g id="a_edge6"><a xlink:href="docs/safe.goListFollowers.html" xlink:title="goListFollowers (safe)" target="_parent">
<path fill="none" stroke="black" d="M133.44,-106.92C113.24,-102.06 89.72,-92.56 77,-74 72.68,-67.7 71.11,-59.89 70.94,-52.25"/>
<polygon fill="black" stroke="black" points="74.44,-52.27 71.44,-42.11 67.45,-51.92 74.44,-52.27"/>
</a>
</g>
<g id="a_edge6&#45;label"><a xlink:href="docs/safe.goListFollowers.html" xlink:title="goListFollowers (safe)" target="_parent">
<text text-anchor="start" x="77" y="-63.6" font-family="Times,serif" font-size="13.00">goListFollowers (safe)</text>
</a>
</g>
</g>
<!-- ListItem&#45;&gt;ListItem -->
<g id="edge7" class="edge">
<title>ListItem&#45;&gt;ListItem</title>
<g id="a_edge7"><a xlink:href="docs/idempotent.doFollowList.html" xlink:title="doFollowList (idempotent)" target="_parent">
<path fill="none" stroke="black" d="M206.68,-121.57C216.78,-121.16 224.5,-118.3 224.5,-113 224.5,-109.69 221.48,-107.33 216.76,-105.92"/>
<polygon fill="black" stroke="black" points="217.08,-102.43 206.68,-104.43 216.06,-109.36 217.08,-102.43"/>
</a>
</g>
<g id="a_edge7&#45;label"><a xlink:href="docs/idempotent.doFollowList.html" xlink:title="doFollowList (idempotent)" target="_parent">
<text text-anchor="start" x="224.5" y="-109.6" font-family="Times,serif" font-size="13.00">doFollowList (idempotent)</text>
</a>
</g>
</g>
<!-- ListMembers -->
<g id="node5" class="node">
<title>ListMembers</title>
<g id="a_node5"><a xlink:href="docs/semantic.ListMembers.html" xlink:title="&lt;TABLE&gt;" target="_parent">
<polygon fill="lightgray" stroke="black" stroke-width="2" points="312.5,-42 217.5,-42 217.5,0 312.5,0 312.5,-42"/>
<text text-anchor="start" x="224" y="-24.8" font-family="Times,serif" font-size="14.00">ListMembers</text>
<text text-anchor="start" x="227.5" y="-9.8" font-family="Times,serif" font-size="14.00">(userList)</text>
</a>
</g>
</g>
<!-- ListItem&#45;&gt;ListMembers -->
<g id="edge8" class="edge">
<title>ListItem&#45;&gt;ListMembers</title>
<g id="a_edge8"><a xlink:href="docs/safe.goListMembers.html" xlink:title="goListMembers (safe)" target="_parent">
<path fill="none" stroke="black" d="M206.74,-98.92C219.52,-92.92 233.11,-84.71 243,-74 248.86,-67.65 253.3,-59.51 256.59,-51.56"/>
<polygon fill="black" stroke="black" points="259.9,-52.69 260.06,-42.1 253.33,-50.28 259.9,-52.69"/>
</a>
</g>
<g id="a_edge8&#45;label"><a xlink:href="docs/safe.goListMembers.html" xlink:title="goListMembers (safe)" target="_parent">
<text text-anchor="start" x="253" y="-63.6" font-family="Times,serif" font-size="13.00">goListMembers (safe)</text>
</a>
</g>
</g>
<!-- Lists&#45;&gt;ListItem -->
<g id="edge9" class="edge">
<title>Lists&#45;&gt;ListItem</title>
<g id="a_edge9"><a xlink:href="docs/safe.goListItem.html" xlink:title="goListItem (safe)" target="_parent">
<path fill="none" stroke="black" d="M176.46,-198.75C175.28,-183.36 173.65,-161.92 172.32,-144.45"/>
<polygon fill="black" stroke="black" points="175.79,-143.89 171.54,-134.18 168.81,-144.42 175.79,-143.89"/>
</a>
</g>
<g id="a_edge9&#45;label"><a xlink:href="docs/safe.goListItem.html" xlink:title="goListItem (safe)" target="_parent">
<text text-anchor="start" x="174" y="-155.6" font-family="Times,serif" font-size="13.00">goListItem (safe)</text>
</a>
</g>
</g>
<!-- Mentions -->
<g id="node7" class="node">
<title>Mentions</title>
<g id="a_node7"><a xlink:href="docs/semantic.Mentions.html" xlink:title="&lt;TABLE&gt;" target="_parent">
<polygon fill="lightgray" stroke="black" stroke-width="2" points="525.5,-134 430.5,-134 430.5,-92 525.5,-92 525.5,-134"/>
<text text-anchor="start" x="448" y="-116.8" font-family="Times,serif" font-size="14.00">Mentions</text>
<text text-anchor="start" x="437" y="-101.8" font-family="Times,serif" font-size="14.00">(tweetList)</text>
</a>
</g>
</g>
<!-- Mentions&#45;&gt;Notifications -->
<g id="edge10" class="edge">
<title>Mentions&#45;&gt;Notifications</title>
<g id="a_edge10"><a xlink:href="docs/safe.goNotifications.html" xlink:title="goNotifications (safe)" target="_parent">
<path fill="none" stroke="black" d="M473.46,-134.14C470.16,-144.78 464.71,-157.38 456,-166 443.22,-178.65 427,-188.41 410.42,-195.91"/>
<polygon fill="black" stroke="black" points="409.01,-192.71 401.18,-199.85 411.76,-199.15 409.01,-192.71"/>
</a>
</g>
<g id="a_edge10&#45;label"><a xlink:href="docs/safe.goNotifications.html" xlink:title="goNotifications (safe)" target="_parent">
<text text-anchor="start" x="466" y="-155.6" font-family="Times,serif" font-size="13.00">goNotifications (safe)</text>
</a>
</g>
</g>
<!-- Notifications&#45;&gt;Mentions -->
<g id="edge11" class="edge">
<title>Notifications&#45;&gt;Mentions</title>
<g id="a_edge11"><a xlink:href="docs/safe.goMentions.html" xlink:title="goMentions (safe)" target="_parent">
<path fill="none" stroke="black" d="M319.54,-198.85C315.54,-184.21 313.35,-164.8 324,-152 350.17,-120.52 375.09,-141.97 420.31,-133.61"/>
<polygon fill="black" stroke="black" points="421.3,-136.98 430.27,-131.35 419.75,-130.15 421.3,-136.98"/>
</a>
</g>
<g id="a_edge11&#45;label"><a xlink:href="docs/safe.goMentions.html" xlink:title="goMentions (safe)" target="_parent">
<text text-anchor="start" x="324" y="-155.6" font-family="Times,serif" font-size="13.00">goMentions (safe)</text>
</a>
</g>
</g>
</g>
</svg>
