<?xml version="1.0" encoding="UTF-8" standalone="no"?>
<!DOCTYPE svg PUBLIC "-//W3C//DTD SVG 1.1//EN"
 "http://www.w3.org/Graphics/SVG/1.1/DTD/svg11.dtd">
<!-- Generated by graphviz version 2.47.1 (20210515.0534)
 -->
<!-- Title: application_state_diagram Pages: 1 -->
<svg width="491pt" height="356pt"
 viewBox="0.00 0.00 490.50 356.00" xmlns="http://www.w3.org/2000/svg" xmlns:xlink="http://www.w3.org/1999/xlink">
<g id="graph0" class="graph" transform="scale(1 1) rotate(0) translate(4 352)">
<title>application_state_diagram</title>
<g id="a_graph0"><a xlink:href="index.html" target="_parent">
<polygon fill="white" stroke="transparent" points="-4,4 -4,-352 486.5,-352 486.5,4 -4,4"/>
</a>
</g>
<!-- Explore -->
<g id="node1" class="node">
<title>Explore</title>
<g id="a_node1"><a xlink:href="docs/semantic.Explore.html" xlink:title="&lt;TABLE&gt;" target="_parent">
<polygon fill="lightgray" stroke="black" stroke-width="2" points="73,-256 0,-256 0,-184 73,-184 73,-256"/>
<text text-anchor="start" x="15" y="-238.8" font-family="Times,serif" font-size="14.00">Explore</text>
<text text-anchor="start" x="12.5" y="-223.8" font-family="Times,serif" font-size="14.00">(ForYou)</text>
<text text-anchor="start" x="9.5" y="-208.8" font-family="Times,serif" font-size="14.00">(Covid19)</text>
<text text-anchor="start" x="6.5" y="-193.8" font-family="Times,serif" font-size="14.00">(Trending)</text>
</a>
</g>
</g>
<!-- Home -->
<g id="node2" class="node">
<title>Home</title>
<g id="a_node2"><a xlink:href="docs/semantic.Home.html" xlink:title="&lt;TABLE&gt;" target="_parent">
<polygon fill="lightgray" stroke="black" stroke-width="2" points="229.5,-348 155.5,-348 155.5,-306 229.5,-306 229.5,-348"/>
<text text-anchor="start" x="175" y="-330.8" font-family="Times,serif" font-size="14.00">Home</text>
<text text-anchor="start" x="161.5" y="-315.8" font-family="Times,serif" font-size="14.00">(tweetList)</text>
</a>
</g>
</g>
<!-- Home&#45;&gt;Explore -->
<g id="edge1" class="edge">
<title>Home&#45;&gt;Explore</title>
<g id="a_edge1"><a xlink:href="docs/safe.goExplore.html" xlink:title="goExplore (safe)" target="_parent">
<path fill="none" stroke="black" d="M155.42,-326.1C123.46,-324.11 78.33,-316.01 51.5,-288 45.7,-281.94 41.95,-274.15 39.57,-266.04"/>
<polygon fill="black" stroke="black" points="42.93,-265.04 37.29,-256.07 36.11,-266.6 42.93,-265.04"/>
</a>
</g>
<g id="a_edge1&#45;label"><a xlink:href="docs/safe.goExplore.html" xlink:title="goExplore (safe)" target="_parent">
<text text-anchor="start" x="51.5" y="-277.6" font-family="Times,serif" font-size="13.00">goExplore (safe)</text>
</a>
</g>
</g>
<!-- Home&#45;&gt;Home -->
<g id="edge2" class="edge">
<title>Home&#45;&gt;Home</title>
<path fill="none" stroke="black" d="M229.52,-335.57C239.71,-335.16 247.5,-332.3 247.5,-327 247.5,-323.69 244.46,-321.33 239.69,-319.92"/>
<polygon fill="black" stroke="black" points="239.92,-316.42 229.52,-318.43 238.9,-323.35 239.92,-316.42"/>
<g id="a_edge2_0"><a xlink:href="docs/unsafe.doTweet.html" xlink:title="&lt;TABLE&gt;">
<text text-anchor="start" x="251.5" y="-333.6" font-family="Times,serif" font-size="13.00">doTweet (unsafe)</text>
</a>
</g>
<g id="a_edge2_1"><a xlink:href="docs/safe.goMoreTweet.html" xlink:title="&lt;TABLE&gt;">
<text text-anchor="start" x="251.5" y="-313.6" font-family="Times,serif" font-size="13.00">goMoreTweet (safe)</text>
</a>
</g>
</g>
<!-- Lists -->
<g id="node6" class="node">
<title>Lists</title>
<g id="a_node6"><a xlink:href="docs/semantic.Lists.html" xlink:title="&lt;TABLE&gt;" target="_parent">
<polygon fill="lightgray" stroke="black" stroke-width="2" points="178.5,-241 104.5,-241 104.5,-199 178.5,-199 178.5,-241"/>
<text text-anchor="start" x="128" y="-223.8" font-family="Times,serif" font-size="14.00">Lists</text>
<text text-anchor="start" x="110.5" y="-208.8" font-family="Times,serif" font-size="14.00">(listOfList)</text>
</a>
</g>
</g>
<!-- Home&#45;&gt;Lists -->
<g id="edge3" class="edge">
<title>Home&#45;&gt;Lists</title>
<g id="a_edge3"><a xlink:href="docs/safe.goLists.html" xlink:title="goLists (safe)" target="_parent">
<path fill="none" stroke="black" d="M161.9,-305.87C156.22,-300.72 150.99,-294.71 147.5,-288 141.71,-276.86 139.72,-263.26 139.37,-251.23"/>
<polygon fill="black" stroke="black" points="142.87,-251.19 139.42,-241.17 135.87,-251.15 142.87,-251.19"/>
</a>
</g>
<g id="a_edge3&#45;label"><a xlink:href="docs/safe.goLists.html" xlink:title="goLists (safe)" target="_parent">
<text text-anchor="start" x="147.5" y="-277.6" font-family="Times,serif" font-size="13.00">goLists (safe)</text>
</a>
</g>
</g>
<!-- Notifications -->
<g id="node8" class="node">
<title>Notifications</title>
<g id="a_node8"><a xlink:href="docs/semantic.Notifications.html" xlink:title="&lt;TABLE&gt;" target="_parent">
<polygon fill="lightgray" stroke="black" stroke-width="2" points="315.5,-241 207.5,-241 207.5,-199 315.5,-199 315.5,-241"/>
<text text-anchor="start" x="225" y="-223.8" font-family="Times,serif" font-size="14.00">Notifications</text>
<text text-anchor="start" x="213.5" y="-208.8" font-family="Times,serif" font-size="14.00">(notificationList)</text>
</a>
</g>
</g>
<!-- Home&#45;&gt;Notifications -->
<g id="edge5" class="edge">
<title>Home&#45;&gt;Notifications</title>
<g id="a_edge5"><a xlink:href="docs/safe.goNotifications.html" xlink:title="goNotifications (safe)" target="_parent">
<path fill="none" stroke="black" d="M205.74,-305.89C209.54,-300.11 213.68,-293.81 217.5,-288 225.72,-275.49 234.8,-261.66 242.57,-249.83"/>
<polygon fill="black" stroke="black" points="245.66,-251.51 248.22,-241.23 239.8,-247.67 245.66,-251.51"/>
</a>
</g>
<g id="a_edge5&#45;label"><a xlink:href="docs/safe.goNotifications.html" xlink:title="goNotifications (safe)" target="_parent">
<text text-anchor="start" x="226.5" y="-277.6" font-family="Times,serif" font-size="13.00">goNotifications (safe)</text>
</a>
</g>
</g>
<!-- Messages -->
<g id="node9" class="node">
<title>Messages</title>
<g id="a_node9"><a xlink:href="docs/semantic.Messages.html" xlink:title="Messages" target="_parent">
<polygon fill="lightgray" stroke="black" stroke-width="2" points="411.5,-238 341.5,-238 341.5,-202 411.5,-202 411.5,-238"/>
<text text-anchor="middle" x="376.5" y="-216.3" font-family="Times,serif" font-size="14.00">Messages</text>
</a>
</g>
</g>
<!-- Home&#45;&gt;Messages -->
<g id="edge4" class="edge">
<title>Home&#45;&gt;Messages</title>
<g id="a_edge4"><a xlink:href="docs/safe.goMessages.html" xlink:title="goMessages (safe)" target="_parent">
<path fill="none" stroke="black" d="M229.56,-325.38C263.02,-322.98 311.85,-314.68 344.5,-288 356.95,-277.83 364.86,-261.66 369.71,-247.76"/>
<polygon fill="black" stroke="black" points="373.07,-248.74 372.71,-238.15 366.39,-246.65 373.07,-248.74"/>
</a>
</g>
<g id="a_edge4&#45;label"><a xlink:href="docs/safe.goMessages.html" xlink:title="goMessages (safe)" target="_parent">
<text text-anchor="start" x="357.5" y="-277.6" font-family="Times,serif" font-size="13.00">goMessages (safe)</text>
</a>
</g>
</g>
<!-- ListFollowers -->
<g id="node3" class="node">
<title>ListFollowers</title>
<g id="a_node3"><a xlink:href="docs/semantic.ListFollowers.html" xlink:title="&lt;TABLE&gt;" target="_parent">
<polygon fill="lightgray" stroke="black" stroke-width="2" points="109.5,-42 21.5,-42 21.5,0 109.5,0 109.5,-42"/>
<text text-anchor="start" x="27.5" y="-24.8" font-family="Times,serif" font-size="14.00">ListFollowers</text>
<text text-anchor="start" x="38" y="-9.8" font-family="Times,serif" font-size="14.00">(userList)</text>
</a>
</g>
</g>
<!-- ListItem -->
<g id="node4" class="node">
<title>ListItem</title>
<g id="a_node4"><a xlink:href="docs/semantic.ListItem.html" xlink:title="&lt;TABLE&gt;" target="_parent">
<polygon fill="lightgray" stroke="black" stroke-width="2" points="165.5,-134 105.5,-134 105.5,-92 165.5,-92 165.5,-134"/>
<text text-anchor="start" x="111.5" y="-116.8" font-family="Times,serif" font-size="14.00">ListItem</text>
<text text-anchor="start" x="122" y="-101.8" font-family="Times,serif" font-size="14.00">(list)</text>
</a>
</g>
</g>
<!-- ListItem&#45;&gt;ListFollowers -->
<g id="edge6" class="edge">
<title>ListItem&#45;&gt;ListFollowers</title>
<g id="a_edge6"><a xlink:href="docs/safe.goListFollowers.html" xlink:title="goListFollowers (safe)" target="_parent">
<path fill="none" stroke="black" d="M105.31,-103.26C90.94,-97.43 75.05,-88.16 66.5,-74 62.58,-67.52 61.13,-59.7 60.94,-52.12"/>
<polygon fill="black" stroke="black" points="64.44,-52.21 61.35,-42.08 57.44,-51.92 64.44,-52.21"/>
</a>
</g>
<g id="a_edge6&#45;label"><a xlink:href="docs/safe.goListFollowers.html" xlink:title="goListFollowers (safe)" target="_parent">
<text text-anchor="start" x="66.5" y="-63.6" font-family="Times,serif" font-size="13.00">goListFollowers (safe)</text>
</a>
</g>
</g>
<!-- ListItem&#45;&gt;ListItem -->
<g id="edge7" class="edge">
<title>ListItem&#45;&gt;ListItem</title>
<g id="a_edge7"><a xlink:href="docs/idempotent.doFollowList.html" xlink:title="doFollowList (idempotent)" target="_parent">
<path fill="none" stroke="black" d="M165.5,-121.62C175.5,-121.62 183.5,-118.75 183.5,-113 183.5,-109.41 180.38,-106.94 175.59,-105.59"/>
<polygon fill="black" stroke="black" points="175.85,-102.09 165.5,-104.38 175.01,-109.04 175.85,-102.09"/>
</a>
</g>
<g id="a_edge7&#45;label"><a xlink:href="docs/idempotent.doFollowList.html" xlink:title="doFollowList (idempotent)" target="_parent">
<text text-anchor="start" x="183.5" y="-109.6" font-family="Times,serif" font-size="13.00">doFollowList (idempotent)</text>
</a>
</g>
</g>
<!-- ListMembers -->
<g id="node5" class="node">
<title>ListMembers</title>
<g id="a_node5"><a xlink:href="docs/semantic.ListMembers.html" xlink:title="&lt;TABLE&gt;" target="_parent">
<polygon fill="lightgray" stroke="black" stroke-width="2" points="249.5,-42 163.5,-42 163.5,0 249.5,0 249.5,-42"/>
<text text-anchor="start" x="169.5" y="-24.8" font-family="Times,serif" font-size="14.00">ListMembers</text>
<text text-anchor="start" x="179" y="-9.8" font-family="Times,serif" font-size="14.00">(userList)</text>
</a>
</g>
</g>
<!-- ListItem&#45;&gt;ListMembers -->
<g id="edge8" class="edge">
<title>ListItem&#45;&gt;ListMembers</title>
<g id="a_edge8"><a xlink:href="docs/safe.goListMembers.html" xlink:title="goListMembers (safe)" target="_parent">
<path fill="none" stroke="black" d="M165.69,-92.49C172.49,-87.1 179.25,-80.83 184.5,-74 189.63,-67.34 193.79,-59.3 197.06,-51.56"/>
<polygon fill="black" stroke="black" points="200.39,-52.63 200.72,-42.04 193.86,-50.11 200.39,-52.63"/>
</a>
</g>
<g id="a_edge8&#45;label"><a xlink:href="docs/safe.goListMembers.html" xlink:title="goListMembers (safe)" target="_parent">
<text text-anchor="start" x="193.5" y="-63.6" font-family="Times,serif" font-size="13.00">goListMembers (safe)</text>
</a>
</g>
</g>
<!-- Lists&#45;&gt;ListItem -->
<g id="edge9" class="edge">
<title>Lists&#45;&gt;ListItem</title>
<g id="a_edge9"><a xlink:href="docs/safe.goListItem.html" xlink:title="goListItem (safe)" target="_parent">
<path fill="none" stroke="black" d="M140.34,-198.75C139.46,-183.36 138.24,-161.92 137.24,-144.45"/>
<polygon fill="black" stroke="black" points="140.72,-143.97 136.65,-134.18 133.73,-144.37 140.72,-143.97"/>
</a>
</g>
<g id="a_edge9&#45;label"><a xlink:href="docs/safe.goListItem.html" xlink:title="goListItem (safe)" target="_parent">
<text text-anchor="start" x="138.5" y="-155.6" font-family="Times,serif" font-size="13.00">goListItem (safe)</text>
</a>
</g>
</g>
<!-- Mentions -->
<g id="node7" class="node">
<title>Mentions</title>
<g id="a_node7"><a xlink:href="docs/semantic.Mentions.html" xlink:title="&lt;TABLE&gt;" target="_parent">
<polygon fill="lightgray" stroke="black" stroke-width="2" points="417.5,-134 343.5,-134 343.5,-92 417.5,-92 417.5,-134"/>
<text text-anchor="start" x="353.5" y="-116.8" font-family="Times,serif" font-size="14.00">Mentions</text>
<text text-anchor="start" x="349.5" y="-101.8" font-family="Times,serif" font-size="14.00">(tweetList)</text>
</a>
</g>
</g>
<!-- Mentions&#45;&gt;Notifications -->
<g id="edge10" class="edge">
<title>Mentions&#45;&gt;Notifications</title>
<g id="a_edge10"><a xlink:href="docs/safe.goNotifications.html" xlink:title="goNotifications (safe)" target="_parent">
<path fill="none" stroke="black" d="M375.49,-134.03C372.07,-144.51 366.66,-156.99 358.5,-166 354.58,-170.33 332.46,-182.53 310.33,-194.13"/>
<polygon fill="black" stroke="black" points="308.48,-191.14 301.23,-198.87 311.71,-197.35 308.48,-191.14"/>
</a>
</g>
<g id="a_edge10&#45;label"><a xlink:href="docs/safe.goNotifications.html" xlink:title="goNotifications (safe)" target="_parent">
<text text-anchor="start" x="368.5" y="-155.6" font-family="Times,serif" font-size="13.00">goNotifications (safe)</text>
</a>
</g>
</g>
<!-- Notifications&#45;&gt;Mentions -->
<g id="edge11" class="edge">
<title>Notifications&#45;&gt;Mentions</title>
<g id="a_edge11"><a xlink:href="docs/safe.goMentions.html" xlink:title="goMentions (safe)" target="_parent">
<path fill="none" stroke="black" d="M254.23,-199C250.32,-184.44 248.17,-165.06 258.5,-152 278.27,-127.01 298.03,-141.97 333.43,-133.66"/>
<polygon fill="black" stroke="black" points="334.66,-136.95 343.31,-130.83 332.73,-130.22 334.66,-136.95"/>
</a>
</g>
<g id="a_edge11&#45;label"><a xlink:href="docs/safe.goMentions.html" xlink:title="goMentions (safe)" target="_parent">
<text text-anchor="start" x="258.5" y="-155.6" font-family="Times,serif" font-size="13.00">goMentions (safe)</text>
</a>
</g>
</g>
</g>
</svg>
